<svg xmlns="http://www.w3.org/2000/svg" width="50" height="42" stroke="black"><defs><clipPath id="quote_svg__a"><path d="M.383 0h49.234v41.375H.383zm0 0"></path></clipPath></defs><g clip-path="url(#quote_svg__a)"><path d="M39.594 41.375c5.77 0 9.703-3.836 9.703-9.23 0-5.153-3.8-8.75-9.176-8.75a9.529 9.529 0 00-3.457.699c.613-7.774 4.953-13.809 12.148-18.016a1.533 1.533 0 00.582-2.137L47.525.84a1.873 1.873 0 00-2.446-.625C34.242 5.859 27.797 15.438 27.797 26.87c0 9.11 4.98 14.504 11.797 14.504zm-27.41 0c5.765 0 9.699-3.836 9.699-9.23 0-5.153-3.801-8.75-9.176-8.75a9.529 9.529 0 00-3.457.699c.617-7.774 4.953-13.809 12.148-18.016a1.535 1.535 0 00.582-2.137L20.113.84a1.882 1.882 0 00-2.449-.625C6.828 5.859.383 15.438.383 26.87c0 9.11 4.984 14.504 11.8 14.504zm0 0" fill="#1d2026"></path></g></svg>